<svg xmlns="http://www.w3.org/2000/svg"  viewBox="0 0 48 48" width="48px" height="48px"><path fill="#fb8c00" d="M13,7.505v16.26L13.961,42c2.924,0.586,6.289,0.905,10.039,1v-8.141	c-0.108-3.915,1.75-5.692,5.12-6.267l7.791-1.016l-2.202-5.42c-3.803-0.595-7.107-1.311-8.793-2.156	c-2.144-1.124-2.833-3.667-1-5.583c0.61-0.638,2.255-1.407,4.119-1.417h8.892l-1.609-5.918C32.845,5.989,26.761,5.527,20.397,5	C18.126,5.424,15.7,6.28,13,7.505z"/><path fill="#ffcc80" d="M29.12,28.592l7.791-1.016l-2.202-5.42c-3.803-0.595-7.107-1.311-8.793-2.156 c-2.144-1.124-2.833-3.667-1-5.583c0.61-0.638,2.255-1.407,4.119-1.417h8.241c-3.658-0.781-6.671-1.453-9.693-1.5 c-5.69-0.088-9.327,2.78-9.75,7.5c-0.269,2.996-0.011,6.233,1.167,10c1.141,3.653,2.704,8.591,5,13.705v-7.846 C23.892,30.944,25.75,29.167,29.12,28.592z"/><path fill="#fb8c00" d="M24,24.5c0,1.381,1.119,2.5,2.5,2.5h10.177l-1.968-4.844c-0.324-0.051-0.639-0.104-0.955-0.156 H26.5C25.119,22,24,23.119,24,24.5z"/><path fill="#ffcc80" d="M19.917,5.333c0,0-0.38,0.511-0.905,1.483c-0.259,0.487-0.559,1.086-0.85,1.795	c-0.296,0.707-0.587,1.52-0.869,2.417c-0.286,0.895-0.522,1.887-0.736,2.94c-0.085,0.531-0.171,1.076-0.26,1.633	c-0.052,0.562-0.14,1.132-0.188,1.715c-0.101,1.166-0.125,2.382-0.123,3.605c0.021,1.23,0.13,2.465,0.315,3.702	c0.345,2.473,0.974,4.905,1.765,7.108c0.795,2.201,1.798,4.164,2.718,5.82c0.928,1.65,1.715,3.024,2.302,3.964	C23.668,42.46,24,43,24,43s-0.408-0.487-1.074-1.376c-0.655-0.896-1.61-2.169-2.624-3.787c-0.999-1.619-2.175-3.542-3.058-5.792	c-0.896-2.237-1.558-4.736-1.932-7.28c-0.178-1.27-0.28-2.566-0.29-3.829c0.006-1.272,0.085-2.509,0.215-3.708	c0.133-1.197,0.36-2.341,0.613-3.414c0.277-1.068,0.572-2.068,0.914-2.967c0.326-0.904,0.7-1.704,1.064-2.393	c0.358-0.692,0.714-1.271,1.018-1.738C19.469,5.789,19.917,5.333,19.917,5.333z"/></svg>